#!OML:ASF E:\Style4\Style4.ASF
:FULLY-SPECIFIED
:DEGREES
2912
root -0.320099 17.7849 -0.917435 3.73972 5.56922 2.77073
lowerback 11.3427 3.38641 0.222552
upperback 5.78955 4.50717 0.0138304
thorax -0.288704 2.26165 -0.619091
lowerneck 4.01403 -16.9377 -5.2407
upperneck 14.2012 -23.6033 7.56636
head 5.21943 -11.4917 2.05559
rclavicle 1.51076e-014 1.66979e-014
rhumerus 75.0205 0.844389 -1501.9
rradius 71.6578
rwrist 1469.5
rhand -43.8311 47.0932
rfingers 7.12502
rthumb -16.6586 17.7881
lclavicle 1.51076e-014 1.66979e-014
lhumerus 74.1021 20.0227 37.9024
lradius 123.266
lwrist 38.0492
lhand -10.7505 23.1286
lfingers 7.12502
lthumb 15.2609 52.5456
rfemur -18.8445 -7.28847 17.6436
rtibia 35.6667
rfoot -19.4871 -19.8665
rtoes -6.86932
lfemur -18.7553 -0.794575 -20.7908
ltibia 31.7947
lfoot -16.3703 10.3387
ltoes -14.9612
2913
root -0.313462 17.7614 -0.963915 3.78792 5.60094 2.80231
lowerback 11.6298 3.37761 0.168179
upperback 5.98199 4.49104 0.14097
thorax -0.257537 2.25124 -0.466992
lowerneck 4.08193 -16.8937 -5.2558
upperneck 14.3998 -23.5381 7.47019
head 5.25661 -11.4572 2.03424
rclavicle -1.78906e-015 -7.95139e-016
rhumerus 74.5919 1.22265 -1502.19
rradius 72.0225
rwrist 1469.33
rhand -44.0111 48.331
rfingers 7.12502
rthumb -16.8319 19.0405
lclavicle -1.78906e-015 -7.95139e-016
lhumerus 73.9589 19.9141 37.8386
lradius 123.206
lwrist 37.9068
lhand -10.7664 23.0515
lfingers 7.12502
lthumb 15.2455 52.4697
rfemur -19.4266 -7.43251 17.5977
rtibia 36.325
rfoot -19.5982 -19.7838
rtoes -6.83442
lfemur -19.3881 -0.669909 -20.8716
ltibia 32.5157
lfoot -16.5763 10.2975
ltoes -15.6575
2914
root -0.30697 17.7388 -1.00891 3.80391 5.59366 2.80366
lowerback 11.9635 3.39622 0.160244
upperback 6.16111 4.51531 0.262192
thorax -0.26043 2.26168 -0.354759
lowerneck 4.05566 -16.8482 -5.11702
upperneck 14.725 -23.4594 7.23916
head 5.31398 -11.408 1.94598
rclavicle 1.59028e-014 -2.70347e-014
rhumerus 74.0727 1.49974 -1502.48
rradius 72.1957
rwrist 1469.25
rhand -44.4434 49.4963
rfingers 7.12502
rthumb -17.248 20.2417
lclavicle 1.59028e-014 -2.70347e-014
lhumerus 74.024 19.6893 37.9565
lradius 123.166
lwrist 37.868
lhand -10.5964 23.0676
lfingers 7.12502
lthumb 15.4092 52.4733
rfemur -19.9769 -7.57437 17.5911
rtibia 36.976
rfoot -19.6329 -19.751
rtoes -7.26394
lfemur -19.9658 -0.550534 -20.919
ltibia 33.2155
lfoot -16.75 10.2736
ltoes -16.1
2915
root -0.299847 17.715 -1.05435 3.85618 5.5669 2.80371
lowerback 12.2619 3.41264 0.200179
upperback 6.34714 4.54128 0.356684
thorax -0.230676 2.27449 -0.294198
lowerneck 4.07841 -16.8064 -4.76711
upperneck 14.8673 -23.3401 6.81974
head 5.25722 -11.346 1.79917
rclavicle -6.91771e-014 1.66979e-014
rhumerus 73.5741 1.81933 -1502.85
rradius 72.1823
rwrist 1469.2
rhand -44.7292 50.8797
rfingers 7.12502
rthumb -17.5231 21.6494
lclavicle -6.91771e-014 1.66979e-014
lhumerus 74.1028 19.56 37.9865
lradius 123.115
lwrist 37.7927
lhand -10.4077 23.0239
lfingers 7.12502
lthumb 15.591 52.4155
rfemur -20.5579 -7.70856 17.5806
rtibia 37.6027
rfoot -19.6793 -19.6357
rtoes -7.61404
lfemur -20.6004 -0.414552 -20.9657
ltibia 33.9388
lfoot -16.8468 10.2068
ltoes -16.4391
2916
root -0.292368 17.6901 -1.10112 3.92779 5.56071 2.80455
lowerback 12.5577 3.42944 0.284028
upperback 6.52301 4.57236 0.427521
thorax -0.204267 2.29119 -0.283241
lowerneck 4.27066 -16.7801 -4.65416
upperneck 14.9453 -23.2778 6.67205
head 5.21716 -11.3168 1.76645
rclavicle 7.95139e-016 3.18055e-015
rhumerus 73.0281 2.20917 -1503.44
rradius 71.9884
rwrist 1469.33
rhand -44.896 52.5244
rfingers 7.12502
rthumb -17.6836 23.3086
lclavicle 7.95139e-016 3.18055e-015
lhumerus 74.1374 19.36 37.9764
lradius 123.135
lwrist 37.7156
lhand -10.2309 23.2831
lfingers 7.12502
lthumb 15.7613 52.6614
rfemur -21.1753 -7.84956 17.5772
rtibia 38.2327
rfoot -19.6811 -19.5947
rtoes -7.83122
lfemur -21.2901 -0.297584 -21.0061
ltibia 34.7261
lfoot -17.0079 10.0499
ltoes -16.331
2917
root -0.287442 17.6631 -1.15249 4.00611 5.59214 2.61035
lowerback 12.8756 3.4447 0.534399
upperback 6.69663 4.6209 0.553473
thorax -0.182771 2.31964 -0.3115
lowerneck 4.34995 -16.7614 -4.75173
upperneck 15.2093 -23.279 6.77727
head 5.31145 -11.3069 1.80172
rclavicle 8.34896e-015 -1.27222e-014
rhumerus 72.545 2.5002 -1503.88
rradius 71.6096
rwrist 1469.4
rhand -45.4292 54.3039
rfingers 7.12502
rthumb -18.1966 25.1351
lclavicle 8.34896e-015 -1.27222e-014
lhumerus 74.2701 19.0537 38.091
lradius 123.164
lwrist 37.6669
lhand -9.98533 23.6854
lfingers 7.12502
lthumb 15.9978 53.0448
rfemur -21.8601 -7.94849 17.8088
rtibia 38.894
rfoot -19.7815 -19.5605
rtoes -7.54791
lfemur -22.0698 -0.196247 -20.8175
ltibia 35.5589
lfoot -17.073 9.8205
ltoes -15.8047
2918
root -0.284349 17.6313 -1.20868 4.14615 5.55769 2.36632
lowerback 13.157 3.46984 0.805018
upperback 6.86717 4.68539 0.675836
thorax -0.142017 2.3568 -0.354492
lowerneck 4.21748 -16.7375 -4.54908
upperneck 15.5856 -23.2325 6.56665
head 5.40011 -11.2643 1.69665
rclavicle -9.54166e-015 1.35174e-014
rhumerus 72.1471 2.71314 -1504.19
rradius 71.2182
rwrist 1469.22
rhand -46.0721 56.081
rfingers 7.12502
rthumb -18.815 26.9709
lclavicle -9.54166e-015 1.35174e-014
lhumerus 74.3726 18.8266 38.038
lradius 123.03
lwrist 37.6834
lhand -9.81657 23.4613
lfingers 7.12502
lthumb 16.1603 52.8077
rfemur -22.6756 -7.96472 18.1208
rtibia 39.5938
rfoot -19.8969 -19.5139
rtoes -7.33887
lfemur -22.9593 -0.0345094 -20.5777
ltibia 36.3988
lfoot -17.0888 9.698
ltoes -15.6566
2919
root -0.277381 17.5994 -1.26012 4.30901 5.50208 2.35359
lowerback 13.4546 3.54909 0.959611
upperback 7.06705 4.80707 0.684466
thorax -0.0767855 2.42235 -0.457863
lowerneck 3.9739 -16.7714 -4.1972
upperneck 15.9022 -23.2587 6.36111
head 5.47616 -11.2484 1.56326
rclavicle -2.42517e-014 -1.51076e-014
rhumerus 71.7222 2.72407 -1504.52
rradius 70.8098
rwrist 1468.85
rhand -46.3774 57.7738
rfingers 7.12502
rthumb -19.1087 28.6925
lclavicle -2.42517e-014 -1.51076e-014
lhumerus 74.6891 18.6016 38.0411
lradius 122.895
lwrist 37.7285
lhand -9.53565 23.4512
lfingers 7.12502
lthumb 16.4308 52.7753
rfemur -23.4933 -8.03659 18.1534
rtibia 40.3325
rfoot -19.9948 -19.4311
rtoes -7.45382
lfemur -23.7959 0.108838 -20.6106
ltibia 37.2116
lfoot -17.2616 9.65793
ltoes -16.1612
2920
root -0.267521 17.5696 -1.30567 4.40095 5.45947 2.50127
lowerback 13.7867 3.60226 0.937292
upperback 7.28021 4.87449 0.672796
thorax -0.0286469 2.45687 -0.47937
lowerneck 3.89368 -16.7764 -4.07511
upperneck 16.171 -23.2687 6.31778
head 5.55567 -11.2339 1.51804
rclavicle -2.38542e-015 2.38542e-015
rhumerus 71.3229 2.84947 -1504.79
rradius 70.2732
rwrist 1468.43
rhand -46.524 59.075
rfingers 7.12502
rthumb -19.2496 30.0077
lclavicle -2.38542e-015 2.38542e-015
lhumerus 74.8862 18.3941 38.0275
lradius 122.815
lwrist 37.6733
lhand -9.27302 23.5941
lfingers 7.12502
lthumb 16.6836 52.8972
rfemur -24.2021 -8.17508 17.9754
rtibia 41.106
rfoot -20.1138 -19.3063
rtoes -7.55944
lfemur -24.4518 0.183082 -20.8317
ltibia 37.9437
lfoot -17.4834 9.67176
ltoes -16.5215
2921
root -0.259406 17.5393 -1.35323 4.51418 5.40553 2.58861
lowerback 14.0468 3.58928 0.819297
upperback 7.44148 4.84472 0.761231
thorax -0.0146714 2.4377 -0.329144
lowerneck 4.08712 -16.7064 -4.27172
upperneck 16.4088 -23.1872 6.34545
head 5.62103 -11.1963 1.5613
rclavicle -1.35174e-014 3.81667e-014
rhumerus 70.9835 3.26683 -1505.07
rradius 69.5834
rwrist 1468.1
rhand -46.846 60.0093
rfingers 7.12502
rthumb -19.5593 30.9731
lclavicle -1.35174e-014 3.81667e-014
lhumerus 74.7208 18.2996 37.8674
lradius 122.707
lwrist 37.6101
lhand -9.07921 23.5226
lfingers 7.12502
lthumb 16.8702 52.8099
rfemur -24.9662 -8.28455 17.8825
rtibia 41.9046
rfoot -20.1634 -19.2255
rtoes -7.63275
lfemur -25.1108 0.270529 -20.9804
ltibia 38.5928
lfoot -17.5946 9.62979
ltoes -16.3902
